<svg width="208" height="108" viewBox="0 0 208 108" fill="none" xmlns="http://www.w3.org/2000/svg">
<g filter="url(#filter0_d_12_0)">
<rect x="24" y="4" width="160" height="60" rx="30" fill="white"/>
</g>
<path d="M78.158 38.976H83.328V41H75.65V25.71H78.158V38.976ZM91.1234 41.198C89.9794 41.198 88.9454 40.9413 88.0214 40.428C87.0974 39.9 86.3714 39.1667 85.8434 38.228C85.3154 37.2747 85.0514 36.1747 85.0514 34.928C85.0514 33.696 85.3227 32.6033 85.8654 31.65C86.4081 30.6967 87.1487 29.9633 88.0874 29.45C89.0261 28.9367 90.0747 28.68 91.2334 28.68C92.3921 28.68 93.4407 28.9367 94.3794 29.45C95.3181 29.9633 96.0587 30.6967 96.6014 31.65C97.1441 32.6033 97.4154 33.696 97.4154 34.928C97.4154 36.16 97.1367 37.2527 96.5794 38.206C96.0221 39.1593 95.2594 39.9 94.2914 40.428C93.3381 40.9413 92.2821 41.198 91.1234 41.198ZM91.1234 39.02C91.7687 39.02 92.3701 38.866 92.9274 38.558C93.4994 38.25 93.9614 37.788 94.3134 37.172C94.6654 36.556 94.8414 35.808 94.8414 34.928C94.8414 34.048 94.6727 33.3073 94.3354 32.706C93.9981 32.09 93.5507 31.628 92.9934 31.32C92.4361 31.012 91.8347 30.858 91.1894 30.858C90.5441 30.858 89.9427 31.012 89.3854 31.32C88.8427 31.628 88.4101 32.09 88.0874 32.706C87.7647 33.3073 87.6034 34.048 87.6034 34.928C87.6034 36.2333 87.9334 37.2453 88.5934 37.964C89.2681 38.668 90.1114 39.02 91.1234 39.02ZM105.219 28.68C106.157 28.68 106.986 28.8707 107.705 29.252C108.438 29.6187 109.01 30.0807 109.421 30.638V28.878H111.951V41.198C111.951 42.3127 111.716 43.3027 111.247 44.168C110.777 45.048 110.095 45.7373 109.201 46.236C108.321 46.7347 107.265 46.984 106.033 46.984C104.39 46.984 103.026 46.5953 101.941 45.818C100.855 45.0553 100.239 44.014 100.093 42.694H102.579C102.769 43.3247 103.173 43.8307 103.789 44.212C104.419 44.608 105.167 44.806 106.033 44.806C107.045 44.806 107.859 44.498 108.475 43.882C109.105 43.266 109.421 42.3713 109.421 41.198V39.174C108.995 39.746 108.416 40.23 107.683 40.626C106.964 41.0073 106.143 41.198 105.219 41.198C104.163 41.198 103.195 40.934 102.315 40.406C101.449 39.8633 100.76 39.1153 100.247 38.162C99.748 37.194 99.4987 36.1013 99.4987 34.884C99.4987 33.6667 99.748 32.5887 100.247 31.65C100.76 30.7113 101.449 29.9853 102.315 29.472C103.195 28.944 104.163 28.68 105.219 28.68ZM109.421 34.928C109.421 34.092 109.245 33.366 108.893 32.75C108.555 32.134 108.108 31.6647 107.551 31.342C106.993 31.0193 106.392 30.858 105.747 30.858C105.101 30.858 104.5 31.0193 103.943 31.342C103.385 31.65 102.931 32.112 102.579 32.728C102.241 33.3293 102.073 34.048 102.073 34.884C102.073 35.72 102.241 36.4533 102.579 37.084C102.931 37.7147 103.385 38.1987 103.943 38.536C104.515 38.8587 105.116 39.02 105.747 39.02C106.392 39.02 106.993 38.8587 107.551 38.536C108.108 38.2133 108.555 37.744 108.893 37.128C109.245 36.4973 109.421 35.764 109.421 34.928ZM116.961 27.272C116.506 27.272 116.125 27.118 115.817 26.81C115.509 26.502 115.355 26.1207 115.355 25.666C115.355 25.2113 115.509 24.83 115.817 24.522C116.125 24.214 116.506 24.06 116.961 24.06C117.401 24.06 117.775 24.214 118.083 24.522C118.391 24.83 118.545 25.2113 118.545 25.666C118.545 26.1207 118.391 26.502 118.083 26.81C117.775 27.118 117.401 27.272 116.961 27.272ZM118.193 28.878V41H115.685V28.878H118.193ZM128.042 28.68C128.995 28.68 129.846 28.878 130.594 29.274C131.356 29.67 131.95 30.2567 132.376 31.034C132.801 31.8113 133.014 32.75 133.014 33.85V41H130.528V34.224C130.528 33.1387 130.256 32.31 129.714 31.738C129.171 31.1513 128.43 30.858 127.492 30.858C126.553 30.858 125.805 31.1513 125.248 31.738C124.705 32.31 124.434 33.1387 124.434 34.224V41H121.926V28.878H124.434V30.264C124.844 29.7653 125.365 29.3767 125.996 29.098C126.641 28.8193 127.323 28.68 128.042 28.68Z" fill="#6C6C6C"/>
<defs>
<filter id="filter0_d_12_0" x="0" y="0" width="208" height="108" filterUnits="userSpaceOnUse" color-interpolation-filters="sRGB">
<feFlood flood-opacity="0" result="BackgroundImageFix"/>
<feColorMatrix in="SourceAlpha" type="matrix" values="0 0 0 0 0 0 0 0 0 0 0 0 0 0 0 0 0 0 127 0" result="hardAlpha"/>
<feOffset dy="20"/>
<feGaussianBlur stdDeviation="12"/>
<feColorMatrix type="matrix" values="0 0 0 0 0 0 0 0 0 0 0 0 0 0 0 0 0 0 0.03 0"/>
<feBlend mode="normal" in2="BackgroundImageFix" result="effect1_dropShadow_12_0"/>
<feBlend mode="normal" in="SourceGraphic" in2="effect1_dropShadow_12_0" result="shape"/>
</filter>
</defs>
</svg>
