<svg width="160" height="60" viewBox="0 0 160 60" fill="none" xmlns="http://www.w3.org/2000/svg">
<rect width="160" height="60" rx="30" fill="#F48C06"/>
<path d="M43.688 37.154C42.6613 37.154 41.7373 36.978 40.916 36.626C40.0947 36.2593 39.4493 35.746 38.98 35.086C38.5107 34.426 38.276 33.656 38.276 32.776H40.96C41.0187 33.436 41.2753 33.9787 41.73 34.404C42.1993 34.8293 42.852 35.042 43.688 35.042C44.5533 35.042 45.228 34.8367 45.712 34.426C46.196 34.0007 46.438 33.458 46.438 32.798C46.438 32.2847 46.284 31.8667 45.976 31.544C45.6827 31.2213 45.3087 30.972 44.854 30.796C44.414 30.62 43.798 30.4293 43.006 30.224C42.0087 29.96 41.1947 29.696 40.564 29.432C39.948 29.1533 39.42 28.728 38.98 28.156C38.54 27.584 38.32 26.8213 38.32 25.868C38.32 24.988 38.54 24.218 38.98 23.558C39.42 22.898 40.036 22.392 40.828 22.04C41.62 21.688 42.5367 21.512 43.578 21.512C45.0593 21.512 46.2693 21.886 47.208 22.634C48.1613 23.3673 48.6893 24.3793 48.792 25.67H46.02C45.976 25.1127 45.712 24.636 45.228 24.24C44.744 23.844 44.106 23.646 43.314 23.646C42.5953 23.646 42.0087 23.8293 41.554 24.196C41.0993 24.5627 40.872 25.0907 40.872 25.78C40.872 26.2493 41.0113 26.638 41.29 26.946C41.5833 27.2393 41.95 27.474 42.39 27.65C42.83 27.826 43.4313 28.0167 44.194 28.222C45.206 28.5007 46.0273 28.7793 46.658 29.058C47.3033 29.3367 47.846 29.7693 48.286 30.356C48.7407 30.928 48.968 31.698 48.968 32.666C48.968 33.4433 48.7553 34.1767 48.33 34.866C47.9193 35.5553 47.3107 36.1127 46.504 36.538C45.712 36.9487 44.7733 37.154 43.688 37.154ZM53.6433 23.272C53.1887 23.272 52.8073 23.118 52.4993 22.81C52.1913 22.502 52.0373 22.1207 52.0373 21.666C52.0373 21.2113 52.1913 20.83 52.4993 20.522C52.8073 20.214 53.1887 20.06 53.6433 20.06C54.0833 20.06 54.4573 20.214 54.7653 20.522C55.0733 20.83 55.2273 21.2113 55.2273 21.666C55.2273 22.1207 55.0733 22.502 54.7653 22.81C54.4573 23.118 54.0833 23.272 53.6433 23.272ZM54.8753 24.878V37H52.3673V24.878H54.8753ZM63.4921 24.68C64.4308 24.68 65.2595 24.8707 65.9781 25.252C66.7115 25.6187 67.2835 26.0807 67.6941 26.638V24.878H70.2241V37.198C70.2241 38.3127 69.9895 39.3027 69.5201 40.168C69.0508 41.048 68.3688 41.7373 67.4741 42.236C66.5941 42.7347 65.5381 42.984 64.3061 42.984C62.6635 42.984 61.2995 42.5953 60.2141 41.818C59.1288 41.0553 58.5128 40.014 58.3661 38.694H60.8521C61.0428 39.3247 61.4461 39.8307 62.0621 40.212C62.6928 40.608 63.4408 40.806 64.3061 40.806C65.3181 40.806 66.1321 40.498 66.7481 39.882C67.3788 39.266 67.6941 38.3713 67.6941 37.198V35.174C67.2688 35.746 66.6895 36.23 65.9561 36.626C65.2375 37.0073 64.4161 37.198 63.4921 37.198C62.4361 37.198 61.4681 36.934 60.5881 36.406C59.7228 35.8633 59.0335 35.1153 58.5201 34.162C58.0215 33.194 57.7721 32.1013 57.7721 30.884C57.7721 29.6667 58.0215 28.5887 58.5201 27.65C59.0335 26.7113 59.7228 25.9853 60.5881 25.472C61.4681 24.944 62.4361 24.68 63.4921 24.68ZM67.6941 30.928C67.6941 30.092 67.5181 29.366 67.1661 28.75C66.8288 28.134 66.3815 27.6647 65.8241 27.342C65.2668 27.0193 64.6655 26.858 64.0201 26.858C63.3748 26.858 62.7735 27.0193 62.2161 27.342C61.6588 27.65 61.2041 28.112 60.8521 28.728C60.5148 29.3293 60.3461 30.048 60.3461 30.884C60.3461 31.72 60.5148 32.4533 60.8521 33.084C61.2041 33.7147 61.6588 34.1987 62.2161 34.536C62.7881 34.8587 63.3895 35.02 64.0201 35.02C64.6655 35.02 65.2668 34.8587 65.8241 34.536C66.3815 34.2133 66.8288 33.744 67.1661 33.128C67.5181 32.4973 67.6941 31.764 67.6941 30.928ZM80.0743 24.68C81.0276 24.68 81.8783 24.878 82.6263 25.274C83.3889 25.67 83.9829 26.2567 84.4083 27.034C84.8336 27.8113 85.0463 28.75 85.0463 29.85V37H82.5603V30.224C82.5603 29.1387 82.2889 28.31 81.7463 27.738C81.2036 27.1513 80.4629 26.858 79.5243 26.858C78.5856 26.858 77.8376 27.1513 77.2803 27.738C76.7376 28.31 76.4663 29.1387 76.4663 30.224V37H73.9583V24.878H76.4663V26.264C76.8769 25.7653 77.3976 25.3767 78.0283 25.098C78.6736 24.8193 79.3556 24.68 80.0743 24.68ZM97.3262 21.71V31.456C97.3262 32.6147 97.6269 33.4873 98.2282 34.074C98.8442 34.6607 99.6949 34.954 100.78 34.954C101.88 34.954 102.731 34.6607 103.332 34.074C103.948 33.4873 104.256 32.6147 104.256 31.456V21.71H106.764V31.412C106.764 32.6587 106.493 33.7147 105.95 34.58C105.408 35.4453 104.682 36.0907 103.772 36.516C102.863 36.9413 101.858 37.154 100.758 37.154C99.6582 37.154 98.6536 36.9413 97.7442 36.516C96.8496 36.0907 96.1382 35.4453 95.6102 34.58C95.0822 33.7147 94.8182 32.6587 94.8182 31.412V21.71H97.3262ZM112.978 26.66C113.403 26.1027 113.982 25.6333 114.716 25.252C115.449 24.8707 116.278 24.68 117.202 24.68C118.258 24.68 119.218 24.944 120.084 25.472C120.964 25.9853 121.653 26.7113 122.152 27.65C122.65 28.5887 122.9 29.6667 122.9 30.884C122.9 32.1013 122.65 33.194 122.152 34.162C121.653 35.1153 120.964 35.8633 120.084 36.406C119.218 36.934 118.258 37.198 117.202 37.198C116.278 37.198 115.456 37.0147 114.738 36.648C114.019 36.2667 113.432 35.7973 112.978 35.24V42.764H110.47V24.878H112.978V26.66ZM120.348 30.884C120.348 30.048 120.172 29.3293 119.82 28.728C119.482 28.112 119.028 27.65 118.456 27.342C117.898 27.0193 117.297 26.858 116.652 26.858C116.021 26.858 115.42 27.0193 114.848 27.342C114.29 27.6647 113.836 28.134 113.484 28.75C113.146 29.366 112.978 30.092 112.978 30.928C112.978 31.764 113.146 32.4973 113.484 33.128C113.836 33.744 114.29 34.2133 114.848 34.536C115.42 34.8587 116.021 35.02 116.652 35.02C117.297 35.02 117.898 34.8587 118.456 34.536C119.028 34.1987 119.482 33.7147 119.82 33.084C120.172 32.4533 120.348 31.72 120.348 30.884Z" fill="white"/>
</svg>
